<?xml version="1.0" encoding="UTF-8" standalone="no"?>
<!-- Created with Inkscape (http://www.inkscape.org/) -->

<svg
   xmlns:dc="http://purl.org/dc/elements/1.1/"
   xmlns:cc="http://creativecommons.org/ns#"
   xmlns:rdf="http://www.w3.org/1999/02/22-rdf-syntax-ns#"
   xmlns:svg="http://www.w3.org/2000/svg"
   xmlns="http://www.w3.org/2000/svg"
   xmlns:sodipodi="http://sodipodi.sourceforge.net/DTD/sodipodi-0.dtd"
   xmlns:inkscape="http://www.inkscape.org/namespaces/inkscape"
   width="383.79904mm"
   height="383.79904mm"
   viewBox="0 0 383.79904 383.79904"
   version="1.1"
   id="svg8"
   inkscape:version="0.92.4 (5da689c313, 2019-01-14)"
   sodipodi:docname="user3.svg">
  <defs
     id="defs2" />
  <sodipodi:namedview
     id="base"
     pagecolor="#000000"
     bordercolor="#666666"
     borderopacity="1.0"
     inkscape:pageopacity="0"
     inkscape:pageshadow="2"
     inkscape:zoom="0.49497474"
     inkscape:cx="678.6253"
     inkscape:cy="699.20337"
     inkscape:document-units="mm"
     inkscape:current-layer="layer1"
     showgrid="false"
     inkscape:window-width="1920"
     inkscape:window-height="1057"
     inkscape:window-x="-8"
     inkscape:window-y="-8"
     inkscape:window-maximized="1"
     showguides="true"
     inkscape:guide-bbox="true" />
  <metadata
     id="metadata5">
    <rdf:RDF>
      <cc:Work
         rdf:about="">
        <dc:format>image/svg+xml</dc:format>
        <dc:type
           rdf:resource="http://purl.org/dc/dcmitype/StillImage" />
        <dc:title />
      </cc:Work>
    </rdf:RDF>
  </metadata>
  <g
     inkscape:label="Layer 1"
     inkscape:groupmode="layer"
     id="layer1"
     transform="translate(-91.94072,144.52927)">
    <rect
       y="-144.52927"
       x="91.94072"
       height="383.79904"
       width="383.79904"
       id="rect9253"
       style="opacity:1;vector-effect:none;fill:#8740ba;fill-opacity:1;stroke:none;stroke-width:1.66499996;stroke-linecap:round;stroke-linejoin:round;stroke-miterlimit:4;stroke-dasharray:none;stroke-dashoffset:0;stroke-opacity:1;paint-order:markers stroke fill" />
    <path
       style="opacity:1;vector-effect:none;fill:#121614;fill-opacity:1;stroke:none;stroke-width:6.29291344;stroke-linecap:round;stroke-linejoin:round;stroke-miterlimit:4;stroke-dasharray:none;stroke-dashoffset:0;stroke-opacity:1;paint-order:markers stroke fill"
       d="M 741.48242 800.41211 A 384.86812 622.7297 0 0 0 356.61328 1423.1426 A 384.86812 622.7297 0 0 0 357.21484 1450.5781 L 1125.502 1450.5781 A 384.86812 622.7297 0 0 0 1126.3496 1423.1426 A 384.86812 622.7297 0 0 0 741.48242 800.41211 z "
       transform="matrix(0.26458333,0,0,0.26458333,91.94072,-144.52927)"
       id="rect9243" />
    <path
       style="opacity:1;vector-effect:none;fill:#121614;fill-opacity:1;stroke:none;stroke-width:2.04299998;stroke-linecap:round;stroke-linejoin:round;stroke-miterlimit:4;stroke-dasharray:none;stroke-dashoffset:0;stroke-opacity:1;paint-order:markers stroke fill"
       d="M 348.33606,10.922023 A 60.670181,60.670181 0 0 1 287.66588,71.592204 60.670181,60.670181 0 0 1 226.9957,10.922023 60.670181,60.670181 0 0 1 287.66588,-49.748158 60.670181,60.670181 0 0 1 348.33606,10.922023 Z"
       id="path9247"
       inkscape:connector-curvature="0" />
    <path
       style="opacity:1;vector-effect:none;fill:#121614;fill-opacity:1;stroke:none;stroke-width:0.83714688;stroke-linecap:round;stroke-linejoin:round;stroke-miterlimit:4;stroke-dasharray:none;stroke-dashoffset:0;stroke-opacity:1;paint-order:markers stroke fill"
       d="M 256.60233,8.5948645 A 26.515711,23.308474 0 0 1 230.08663,31.903341 26.515711,23.308474 0 0 1 203.57092,8.5948645 26.515711,23.308474 0 0 1 230.08663,-14.713609 26.515711,23.308474 0 0 1 256.60233,8.5948645 Z"
       id="path9247-2"
       inkscape:connector-curvature="0" />
    <path
       inkscape:connector-curvature="0"
       id="path4775"
       d="M 271.56942,39.59813 A 40.95343,23.305537 1.1061629 0 1 230.62117,62.372068 40.95343,23.305537 1.1061629 0 1 189.6729,38.529052 40.95343,23.305537 1.1061629 0 1 230.62117,15.755118 40.95343,23.305537 1.1061629 0 1 271.56942,39.59813 Z"
       style="opacity:1;vector-effect:none;fill:#121614;fill-opacity:1;stroke:none;stroke-width:1.04032207;stroke-linecap:round;stroke-linejoin:round;stroke-miterlimit:4;stroke-dasharray:none;stroke-dashoffset:0;stroke-opacity:1;paint-order:markers stroke fill" />
    <path
       style="opacity:1;vector-effect:none;fill:#121614;fill-opacity:1;stroke:none;stroke-width:0.83714694;stroke-linecap:round;stroke-linejoin:round;stroke-miterlimit:4;stroke-dasharray:none;stroke-dashoffset:0;stroke-opacity:1;paint-order:markers stroke fill"
       d="M 378.24241,8.0785578 A 26.515711,23.308474 0 0 1 351.72671,31.387039 26.515711,23.308474 0 0 1 325.211,8.0785578 26.515711,23.308474 0 0 1 351.72671,-15.229912 26.515711,23.308474 0 0 1 378.24241,8.0785578 Z"
       id="path9247-2-5"
       inkscape:connector-curvature="0" />
    <path
       inkscape:connector-curvature="0"
       id="path4775-3"
       d="M 393.2095,39.081828 A 40.953431,23.305537 1.1061629 0 1 352.26125,61.855765 40.953431,23.305537 1.1061629 0 1 311.31298,38.01275 40.953431,23.305537 1.1061629 0 1 352.26125,15.238818 40.953431,23.305537 1.1061629 0 1 393.2095,39.081828 Z"
       style="opacity:1;vector-effect:none;fill:#121614;fill-opacity:1;stroke:none;stroke-width:1.04032207;stroke-linecap:round;stroke-linejoin:round;stroke-miterlimit:4;stroke-dasharray:none;stroke-dashoffset:0;stroke-opacity:1;paint-order:markers stroke fill" />
    <path
       style="opacity:1;vector-effect:none;fill:#121614;fill-opacity:1;stroke:none;stroke-width:0.837147;stroke-linecap:round;stroke-linejoin:round;stroke-miterlimit:4;stroke-dasharray:none;stroke-dashoffset:0;stroke-opacity:1;paint-order:markers stroke fill"
       d="m 290.578,-52.588562 a 26.515711,23.308474 0 0 1 -26.5157,23.308481 26.515711,23.308474 0 0 1 -26.51571,-23.308481 26.515711,23.308474 0 0 1 26.51571,-23.30847 26.515711,23.308474 0 0 1 26.5157,23.30847 z"
       id="path9247-2-5-8"
       inkscape:connector-curvature="0" />
    <path
       style="opacity:1;vector-effect:none;fill:#121614;fill-opacity:1;stroke:none;stroke-width:0.837147;stroke-linecap:round;stroke-linejoin:round;stroke-miterlimit:4;stroke-dasharray:none;stroke-dashoffset:0;stroke-opacity:1;paint-order:markers stroke fill"
       d="m 341.35922,-53.123101 a 26.515711,23.308474 0 0 1 -26.5157,23.308481 26.515711,23.308474 0 0 1 -26.51571,-23.308481 26.515711,23.308474 0 0 1 26.51571,-23.30847 26.515711,23.308474 0 0 1 26.5157,23.30847 z"
       id="path9247-2-5-2"
       inkscape:connector-curvature="0" />
    <path
       inkscape:connector-curvature="0"
       id="path4775-3-0"
       d="m 362.74078,-29.068839 a 40.953431,23.305537 1.1061629 0 1 -40.94825,22.7739357 40.953431,23.305537 1.1061629 0 1 -40.94827,-23.8430157 40.953431,23.305537 1.1061629 0 1 40.94827,-22.77393 40.953431,23.305537 1.1061629 0 1 40.94825,23.84301 z"
       style="opacity:1;vector-effect:none;fill:#121614;fill-opacity:1;stroke:none;stroke-width:1.04032207;stroke-linecap:round;stroke-linejoin:round;stroke-miterlimit:4;stroke-dasharray:none;stroke-dashoffset:0;stroke-opacity:1;paint-order:markers stroke fill" />
    <path
       inkscape:connector-curvature="0"
       id="path4775-3-0-7"
       d="m 297.52702,-26.930683 a 40.953431,23.305537 1.1061629 0 1 -40.94825,22.7739358 40.953431,23.305537 1.1061629 0 1 -40.94827,-23.8430158 40.953431,23.305537 1.1061629 0 1 40.94827,-22.77393 40.953431,23.305537 1.1061629 0 1 40.94825,23.84301 z"
       style="opacity:1;vector-effect:none;fill:#121614;fill-opacity:1;stroke:none;stroke-width:1.04032207;stroke-linecap:round;stroke-linejoin:round;stroke-miterlimit:4;stroke-dasharray:none;stroke-dashoffset:0;stroke-opacity:1;paint-order:markers stroke fill" />
  </g>
</svg>
